<svg width="512" height="468" fill="none" xmlns="http://www.w3.org/2000/svg"><path fill-rule="evenodd" clip-rule="evenodd" d="M496.999 160.734h-5.91L430.593 9.496a14.998 14.998 0 00-19.496-8.355L307.39 42.613c-8.672-12.101-21.504-21.027-36.391-24.668-12.8-2.444-25.333-1.018-29.999 0-27.629 6.754-48.2 31.707-48.2 61.39 0 3.013.227 5.973.637 8.876L89.761 129.672l-.003.004a15.015 15.015 0 00-8.352 8.351L20.91 289.265H15c-8.285 0-15 6.719-15 15 0 43.711 35.559 79.269 79.266 79.269h32.136c43.707 0 79.266-35.558 79.266-79.269 0-8.281-6.715-15-15-15h-5.914l-54.922-137.308 89.777-35.903c8.676 12.102 21.504 21.028 36.391 24.664V378.5h-17.133c-43.707 0-78.839 30.785-78.839 74.5 0 8.285 6.718 15 15 15h192.804c8.281 0 15-5.766 15-10.266v-4.75c0-43.699-35.993-74.484-79.7-74.484h-17.133V140.718c27.629-6.75 48.2-31.703 48.2-61.382a64.02 64.02 0 00-.633-8.88l71.175-28.464-47.496 118.742h-5.914c-8.281 0-15 6.715-15 15 0 43.707 35.559 79.266 79.27 79.266h32.133c43.706 0 79.265-35.559 79.265-79.266 0-8.285-6.715-15-15-15zM79.265 353.531h32.137c21.93 0 40.563-14.403 46.926-34.25l-.063-.008a1.163 1.163 0 00-.062-.008H32.336c6.36 19.855 24.992 34.266 46.93 34.266zm-26.042-64.266h84.222L95.332 183.988l-42.11 105.277zM177.36 438H335.5c-6.355-19.852-25.426-29.5-47.364-29.5h-64.269c-21.942 0-40.148 9.648-46.507 29.5zM222.8 79.332c0 18.308 14.895 33.199 33.199 33.199 18.309 0 33.2-14.89 33.2-33.2 0-18.304-14.895-33.198-33.2-33.198-18.304 0-33.199 14.894-33.199 33.199zm235.976 81.402L416.667 55.457l-42.113 105.277h84.222zM400.601 225h32.133c21.933 0 40.562-14.407 46.925-34.254a13.744 13.744 0 00-.125-.012H353.667c6.36 19.852 24.996 34.266 46.934 34.266z" fill="#000"/></svg>