<svg width="885" height="834" fill="none" xmlns="http://www.w3.org/2000/svg"><g clip-path="url(#clip0)" fill-rule="evenodd" clip-rule="evenodd" fill="#000"><path d="M396.799 685.917c40.917 0 74.101 33.192 74.101 74.1 0 40.929-33.188 74.104-74.101 74.104-40.92 0-74.103-33.175-74.103-74.104 0-40.908 33.183-74.1 74.103-74.1zm-15.699 74.1c0-13.966 16.949-20.95 26.801-11.093 6.129 6.12 6.129 16.074 0 22.207-9.848 9.84-26.801 2.857-26.801-11.114zm361.502-74.1c40.921 0 74.1 33.192 74.1 74.1 0 40.929-33.179 74.104-74.1 74.104-40.916 0-74.1-33.175-74.1-74.104 0-40.908 33.184-74.1 74.1-74.1zm-15.704 74.1c0-13.966 16.957-20.95 26.81-11.093 6.132 6.12 6.132 16.074 0 22.207-9.853 9.84-26.81 2.857-26.81-11.114zm-67.94-236.395c95.199-12.456 173.713-76.594 204.941-165.352C903.332 265.5 880.6 221.624 853.5 209.223l-292.754-37.829-383.389-55.945-35.803-25.92c5.032-20.203.792-41.173-10.11-57.42C109.342-.809 64.729-9.646 31.784 12.471-1.138 34.573-9.976 79.193 12.145 112.14c20.552 30.619 60.871 40.823 93.473 23.362l36.545 26.458 150.683 370.949c-5.024 5.762-9.31 12.312-12.757 19.596-26.157 55.387 14.88 118.202 75.759 118.202h457.567c16.126 0 29.199-13.073 29.199-29.203 0-16.125-13.073-29.202-29.199-29.202H355.848c-9.333 0-16.812-3.985-21.723-11.808-8.99-14.337-.933-32.605 14.767-36.306l310.066-40.565zM575.5 233l-159.261-23.777 28.862 99.609 146.861 4.083-6.62-38.039s-5.677-26.59-9.842-41.876zM83.091 64.508c-6.468-9.637-22.195-7.24-24.592 4.958-2.428 12.382 11.254 20.435 20.915 13.955 6.14-4.122 7.776-12.8 3.677-18.913zm325.64 433.308c9.843-1.367 19.655-2.729 29.379-4.005l-37.075-127.992-114.4-3.181 58.209 143.289c21.071-2.166 42.55-5.148 63.879-8.11h.001l.007-.001zm53.37-130.303l34.39 118.67 122.812-16.07-17.172-98.708-140.03-3.892zm-199.387-63.759l121.309 3.372-31.04-107.135-140.76-20.548 50.491 124.311zM640.5 239.5l9.5 73.415s101 6.585 134.5 6.585c16.5-20.667 35.1-63.4-4.5-67-11.666-1.061-25.962-2.219-41.092-3.446-36.23-2.937-77.246-6.262-98.408-9.554zm36.387 221.365l-17.929-89.46L789 373.961c-25.665 38.415-66.224 74.632-112.113 86.904z"/></g><defs><clipPath id="clip0"><path fill="#fff" d="M0 0h885v834H0z"/></clipPath></defs></svg>